<?xml version="1.0" encoding="UTF-8" standalone="no"?>
<svg
   xmlns:dc="http://purl.org/dc/elements/1.1/"
   xmlns:cc="http://creativecommons.org/ns#"
   xmlns:rdf="http://www.w3.org/1999/02/22-rdf-syntax-ns#"
   xmlns:svg="http://www.w3.org/2000/svg"
   xmlns="http://www.w3.org/2000/svg"
   xmlns:sodipodi="http://sodipodi.sourceforge.net/DTD/sodipodi-0.dtd"
   xmlns:inkscape="http://www.inkscape.org/namespaces/inkscape"
   inkscape:version="1.0 (4035a4fb49, 2020-05-01)"
   inkscape:export-ydpi="108.84501"
   inkscape:export-xdpi="108.84501"
   sodipodi:docname="finish-flag.svg"
   id="svg8"
   version="1.1"
   viewBox="0 0 21.54564 36.106298"
   height="7.0007806mm"
   width="4.1775618mm">
  <sodipodi:namedview
     inkscape:current-layer="layer2"
     inkscape:window-maximized="1"
     inkscape:window-y="37"
     inkscape:window-x="0"
     inkscape:cy="13.395505"
     inkscape:cx="5.9093139"
     inkscape:zoom="16"
     fit-margin-bottom="0"
     fit-margin-right="0"
     fit-margin-left="0"
     fit-margin-top="0"
     scale-x="1.36458"
     showgrid="false"
     id="namedview11"
     inkscape:window-height="1005"
     inkscape:window-width="1920"
     inkscape:pageshadow="2"
     inkscape:pageopacity="0"
     guidetolerance="10"
     gridtolerance="10"
     objecttolerance="10"
     borderopacity="1"
     bordercolor="#666666"
     pagecolor="#ffffff" />
  <defs
     id="defs2" />
  <metadata
     id="metadata5">
    <rdf:RDF>
      <cc:Work
         rdf:about="">
        <dc:format>image/svg+xml</dc:format>
        <dc:type
           rdf:resource="http://purl.org/dc/dcmitype/StillImage" />
        <dc:title></dc:title>
      </cc:Work>
    </rdf:RDF>
  </metadata>
  <g
     transform="translate(-106.71029,-117.08945)"
     id="layer2">
    <path
       d="m 107.5769,117.08945 c 0.48011,0 0.86662,0.38651 0.86662,0.86661 v 34.37307 c 0,0.48011 -0.38651,0.86662 -0.86662,0.86662 -0.4801,0 -0.86661,-0.38651 -0.86661,-0.86662 v -34.37307 c 0,-0.4801 0.38651,-0.86661 0.86661,-0.86661 z"
       style="fill:#000000;stroke-width:0.306663"
       id="rect850" />
    <g
       style="opacity:1"
       id="g959" />
    <path
       style="fill:#ffffff;fill-opacity:1;stroke:none;stroke-width:0.265604px;stroke-linecap:butt;stroke-linejoin:miter;stroke-opacity:1"
       d="m 109.26238,133.22239 c 0,0 3.7549,1.35959 10.37265,-0.4923 6.61774,-1.85189 8.48821,0.48178 8.48821,0.48178 V 118.517 c 0,0 -1.87047,-2.33368 -8.48821,-0.48178 -6.61775,1.85188 -10.37265,0.49228 -10.37265,0.49228 z"
       id="path935-3" />
    <path
       sodipodi:nodetypes="ccccccccscccccccsccccccccccccscccccsccccccsccsccccccccccccsccccccsccccccccccccccccscccccccssccccscccsssccccccsccccc"
       d="m 127.98899,128.06257 c -0.18765,-0.13781 -0.71695,-0.40005 -1.04268,-0.51662 -0.8201,-0.29346 -1.65451,-0.41607 -2.84163,-0.41755 l -0.75572,-8.5e-4 0.009,-2.42353 0.009,-2.42354 0.85324,0.002 c 0.94226,0.002 1.36734,0.0498 2.06244,0.22894 0.70982,0.18301 1.37066,0.49282 1.71619,0.80457 v 0 l 0.0114,2.5056 z m -9.22811,-7.29606 2e-4,-2.44239 0.8688,-0.22507 c 1.04999,-0.27203 1.55383,-0.35082 2.2132,-0.46704 0.5663,-0.0998 1.24989,-0.0905 1.41112,-0.16332 l 0.12923,-0.0584 v 2.43365 2.43366 l -0.13438,0.0195 c -0.0739,0.0108 -0.2392,0.0295 -0.36731,0.0418 -0.90109,0.0859 -2.20055,0.35056 -3.66417,0.74637 l -0.45689,0.12355 z m -0.001,9.72216 2e-4,-2.44356 0.86922,-0.22557 c 1.03942,-0.26978 1.49169,-0.37242 2.15987,-0.4902 0.56656,-0.0999 1.30041,-0.19846 1.47741,-0.19846 h 0.118 v 2.43575 2.43577 l -0.15237,0.0193 c -0.0839,0.0105 -0.37017,0.045 -0.63638,0.0765 -0.89406,0.1058 -1.99403,0.33721 -3.37908,0.71086 l -0.45711,0.12332 2.4e-4,-2.44355 z m -8.36388,2.97997 c -0.38731,-0.0653 -0.5674,-0.10429 -0.99303,-0.2153 l -0.13419,-0.0351 v -2.43582 c 0,-2.12994 0.007,-2.43328 0.0527,-2.4156 0.0289,0.0112 0.29065,0.0687 0.5815,0.12804 1.03439,0.2109 1.91227,0.28882 3.25392,0.28882 h 0.94335 l -0.009,2.44232 -0.0143,2.40401 c -1.3538,0.0743 -2.41737,-0.008 -3.68095,-0.16137 z m 3.68055,-7.11491 v -2.43735 l 0.27813,-0.0232 c 1.14175,-0.0949 1.95864,-0.20057 2.91258,-0.37669 0.54315,-0.10027 1.35603,-0.26983 1.484,-0.30952 0.0598,-0.0185 0.0627,0.10759 0.0538,2.432 l -0.009,2.45156 -0.6101,0.1339 c -1.30237,0.28585 -3.24016,0.56658 -3.91083,0.56658 h -0.1984 z m -2.18032,-2.46263 c -0.50223,-0.0337 -0.90643,-0.0821 -1.48373,-0.17752 -0.38223,-0.0632 -0.55785,-0.10103 -0.98032,-0.2112 l -0.13248,-0.0346 v -2.40465 c 0,-2.24289 0.004,-2.40312 0.0597,-2.38176 0.12614,0.0484 1.10798,0.23214 1.51237,0.28301 0.77505,0.0975 1.26296,0.12484 2.23443,0.12521 l 0.96267,2.7e-4 v 2.41991 2.4199 l -0.87434,-0.005 c -0.4809,-0.003 -1.06512,-0.018 -1.29828,-0.0336 z m 11.85188,-6.62157 c -1.11786,0.0417 -2.48556,0.24332 -4.14844,0.70508 -3.29462,0.91488 -5.87297,1.03447 -7.625,0.92773 -1.75203,-0.10673 -2.66797,-0.43554 -2.66797,-0.43554 l -0.17773,-0.0645 v 14.86328 l 0.0879,0.0313 c 0,0 0.96233,0.34469 2.74218,0.45312 1.77986,0.10843 4.38781,-0.0167 7.71094,-0.93945 3.29197,-0.91415 5.38918,-0.79097 6.65625,-0.44922 0.63354,0.17087 1.05924,0.39773 1.32617,0.57812 0.26693,0.1804 0.36719,0.30664 0.36719,0.30664 0,0 0.0811,0.0945 0.23633,0.29102 V 118.5332 l -0.0293,-0.0371 c 0,0 -0.13519,-0.16299 -0.42578,-0.35937 -0.29059,-0.19638 -0.74495,-0.43492 -1.40625,-0.61328 -0.6613,-0.17836 -1.52863,-0.29564 -2.64648,-0.25391 z m 0.01,0.26367 c 1.0941,-0.0409 1.93482,0.0752 2.56836,0.2461 0.63354,0.17087 1.05924,0.39773 1.32617,0.57812 0.24531,0.16578 0.32261,0.26289 0.33789,0.28125 v 14.24024 c -0.0693,-0.0628 -0.0601,-0.0727 -0.18945,-0.16016 -0.29059,-0.19638 -0.74495,-0.43492 -1.40625,-0.61328 -1.32259,-0.35672 -3.46915,-0.47236 -6.79492,0.45117 -3.29462,0.91488 -5.87297,1.03447 -7.625,0.92774 -1.69439,-0.10322 -2.52187,-0.40142 -2.58008,-0.42188 v -14.31836 c 0.11599,0.0394 0.89995,0.32243 2.56445,0.42383 1.77986,0.10842 4.38781,-0.0167 7.71094,-0.93945 1.64599,-0.45708 2.9938,-0.65441 4.08789,-0.69532 z m -14.48933,15.68504 c 0,0 3.95658,1.30795 10.57433,-0.52972 6.61774,-1.83767 8.28013,0.47358 8.28013,0.47358 v -14.58204 c 0,0 -1.87047,-2.31576 -8.48821,-0.47809 -6.61775,1.83767 -10.37265,0.48852 -10.37265,0.48852 z"
       style="fill:#000000;stroke:none;stroke-width:0.0355519"
       id="path953" />
  </g>
</svg>
