<?xml version="1.0" encoding="UTF-8"?>
<svg id="svg2399" xmlns="http://www.w3.org/2000/svg" version="1.1" xmlns:cc="http://creativecommons.org/ns#" xmlns:dc="http://purl.org/dc/elements/1.1/" xmlns:inkscape="http://www.inkscape.org/namespaces/inkscape" xmlns:rdf="http://www.w3.org/1999/02/22-rdf-syntax-ns#" xmlns:sodipodi="http://sodipodi.sourceforge.net/DTD/sodipodi-0.dtd" xmlns:svg="http://www.w3.org/2000/svg" xmlns:xlink="http://www.w3.org/1999/xlink" viewBox="0 0 383.64 51.43">
  <defs>
    <style>
      .st0 {
        fill: url(#Sfumatura_senza_nome_2);
      }

      .st1 {
        fill: #0070e0;
      }

      .st2 {
        fill: none;
      }

      .st3 {
        fill: #0f0f0f;
      }

      .st4 {
        fill: #0025e0;
      }

      .st5 {
        fill: url(#Sfumatura_senza_nome);
      }

      .st6 {
        fill: #00bbe0;
      }
    </style>
    <linearGradient id="Sfumatura_senza_nome" data-name="Sfumatura senza nome" x1="-373.8" y1="281.85" x2="-344" y2="265.76" gradientTransform="translate(1275.6 756.48) scale(2.62 -2.62)" gradientUnits="userSpaceOnUse">
      <stop offset="0" stop-color="#00bbe0"/>
      <stop offset="1" stop-color="#0025e0"/>
    </linearGradient>
    <linearGradient id="Sfumatura_senza_nome_2" data-name="Sfumatura senza nome 2" x1="-369.7" y1="289.43" x2="-339.91" y2="273.34" gradientTransform="translate(1275.6 756.48) scale(2.62 -2.62)" gradientUnits="userSpaceOnUse">
      <stop offset="0" stop-color="#00bbe0"/>
      <stop offset="1" stop-color="#0025e0"/>
    </linearGradient>
  </defs>
  <sodipodi:namedview id="base" bordercolor="#666666" borderopacity="1.0" fit-margin-bottom="5" fit-margin-left="5" fit-margin-right="5" fit-margin-top="5" inkscape:current-layer="layer1" inkscape:cx="-1.036378" inkscape:cy="-48.856135" inkscape:document-rotation="0" inkscape:document-units="mm" inkscape:pageopacity="0.0" inkscape:pageshadow="2" inkscape:window-height="1005" inkscape:window-maximized="1" inkscape:window-width="1920" inkscape:window-x="0" inkscape:window-y="37" inkscape:zoom="0.89812355" pagecolor="#ffffff" showgrid="false" units="px"/>
  <g id="layer1" inkscape:groupmode="layer" inkscape:label="Layer 1">
    <g id="g2369">
      <g id="g1606">
        <g id="text1604">
          <path id="path2300" class="st2" d="M107.62,3.43c7.01,0,12.38,1.63,16.1,4.89,3.73,3.26,5.59,7.97,5.59,14.11,0,4.97-1.04,9.36-3.13,13.17-2.08,3.81-5.1,6.82-9.06,9.03-3.96,2.19-8.39,3.28-13.29,3.28h-18.25L94.23,3.43h13.39ZM96.28,40.72h7.26c3.37,0,6.35-.72,8.93-2.15,2.61-1.45,4.61-3.54,6-6.25,1.41-2.72,2.12-5.87,2.12-9.47,0-3.98-1.12-7.01-3.35-9.09-2.21-2.08-5.4-3.13-9.57-3.13h-5.56l-5.84,30.09Z"/>
          <path id="path2302" class="st2" d="M158.47,47.92l-6.22-14.45h-9.36l-2.79,14.45h-7.98l7.41-38.13h17.62c2.87,0,5.32.44,7.36,1.33,2.06.88,3.62,2.15,4.68,3.79,1.06,1.64,1.6,3.57,1.6,5.79,0,2.98-.98,5.5-2.95,7.58-1.95,2.07-4.6,3.36-7.96,3.87l7.41,15.78h-8.82ZM154.74,27.24c2.62,0,4.59-.52,5.93-1.57,1.35-1.06,2.03-2.57,2.03-4.52,0-1.68-.58-2.96-1.73-3.84-1.14-.88-2.74-1.33-4.82-1.33h-9.85l-2.19,11.26h10.64Z"/>
          <path id="path2304" class="st2" d="M196.27,9.22c5.29,0,9.45,1.41,12.5,4.22,3.05,2.8,4.57,6.61,4.57,11.45,0,4.46-.96,8.52-2.87,12.2-1.89,3.66-4.55,6.48-7.96,8.44-3.41,1.95-7.31,2.92-11.69,2.92-3.48,0-6.51-.65-9.09-1.95-2.56-1.3-4.52-3.16-5.87-5.57-1.34-2.44-2-5.28-2-8.52,0-4.24.95-8.19,2.84-11.85,1.91-3.68,4.56-6.49,7.93-8.42,3.37-1.95,7.25-2.92,11.64-2.92h0ZM195.9,15.53c-2.92,0-5.41.68-7.47,2.03-2.06,1.35-3.64,3.39-4.76,6.12-1.12,2.72-1.68,5.57-1.68,8.52,0,3.32.81,5.82,2.44,7.5,1.62,1.66,3.89,2.49,6.79,2.49s5.39-.68,7.44-2.03c2.06-1.35,3.64-3.36,4.76-6.03,1.14-2.67,1.7-5.53,1.7-8.58s-.79-5.64-2.38-7.39c-1.57-1.75-3.85-2.62-6.85-2.62Z"/>
          <path id="path2306" class="st2" d="M238.19,47.92l-10.12-30.61c-.41,2.92-.76,5.08-1.03,6.47l-4.71,24.14h-7.09l7.41-38.13h9.47l10.2,30.88.32-2.22c.2-1.5.46-3.07.78-4.71l4.71-23.95h7.09l-7.41,38.13h-9.63Z"/>
          <path id="path2308" class="st2" d="M255.27,47.92l7.39-38.13h29.98l-1.19,6.17h-22l-1.87,9.58h20.35l-1.19,6.17h-20.35l-1.95,10.04h23.11l-1.22,6.17h-31.07Z"/>
          <path id="path2310" class="st5" d="M317.21,3.43c7.01,0,12.38,1.63,16.1,4.89,3.73,3.26,5.59,7.97,5.59,14.11,0,4.97-1.04,9.36-3.13,13.17-2.08,3.81-5.1,6.82-9.06,9.03-3.96,2.19-8.39,3.28-13.29,3.28h-18.25l8.65-44.48h13.39ZM305.87,40.72h7.26c3.37,0,6.35-.72,8.93-2.15,2.61-1.45,4.61-3.54,6-6.25,1.41-2.72,2.12-5.87,2.12-9.47,0-3.98-1.12-7.01-3.35-9.09-2.21-2.08-5.4-3.13-9.57-3.13h-5.56l-5.84,30.09Z"/>
          <path id="path2312" class="st0" d="M349.13,3.43h18.44c5.28,0,9.28.87,12,2.62,2.72,1.73,4.07,4.28,4.07,7.67,0,2.88-.87,5.25-2.62,7.1-1.73,1.83-4.26,3.09-7.61,3.79,2.86.48,5.09,1.6,6.69,3.35,1.62,1.73,2.43,3.84,2.43,6.35,0,4.44-1.65,7.82-4.96,10.13-3.28,2.32-8.23,3.47-14.84,3.47h-22.26l8.65-44.48ZM354.94,21.37h9.28c3.68,0,6.29-.48,7.83-1.45,1.56-.97,2.34-2.56,2.34-4.77,0-1.68-.6-2.9-1.8-3.66-1.2-.76-3.21-1.14-6.03-1.14h-9.5l-2.12,11.02ZM351.12,41.01h10.36c4.4,0,7.45-.53,9.16-1.58,1.7-1.07,2.56-2.84,2.56-5.3,0-1.89-.72-3.35-2.15-4.36-1.43-1.01-3.77-1.52-7.01-1.52h-10.42l-2.49,12.75Z"/>
        </g>
      </g>
      <g id="g1588">
        <g id="text10">
          <path id="path2334" class="st3" d="M107.62,3.43c7.01,0,12.38,1.63,16.1,4.89,3.73,3.26,5.59,7.97,5.59,14.11,0,4.97-1.04,9.36-3.13,13.17-2.08,3.81-5.1,6.82-9.06,9.03-3.96,2.19-8.39,3.28-13.29,3.28h-18.25L94.23,3.43h13.39ZM96.28,40.72h7.26c3.37,0,6.35-.72,8.93-2.15,2.61-1.45,4.61-3.54,6-6.25,1.41-2.72,2.12-5.87,2.12-9.47,0-3.98-1.12-7.01-3.35-9.09-2.21-2.08-5.4-3.13-9.57-3.13h-5.56l-5.84,30.09Z"/>
          <path id="path2336" class="st3" d="M158.47,47.92l-6.22-14.45h-9.36l-2.79,14.45h-7.98l7.41-38.13h17.62c2.87,0,5.32.44,7.36,1.33,2.06.88,3.62,2.15,4.68,3.79,1.06,1.64,1.6,3.57,1.6,5.79,0,2.98-.98,5.5-2.95,7.58-1.95,2.07-4.6,3.36-7.96,3.87l7.41,15.78h-8.82ZM154.74,27.24c2.62,0,4.59-.52,5.93-1.57,1.35-1.06,2.03-2.57,2.03-4.52,0-1.68-.58-2.96-1.73-3.84-1.14-.88-2.74-1.33-4.82-1.33h-9.85l-2.19,11.26h10.64Z"/>
          <path id="path2338" class="st3" d="M196.27,9.22c5.29,0,9.45,1.41,12.5,4.22,3.05,2.8,4.57,6.61,4.57,11.45,0,4.46-.96,8.52-2.87,12.2-1.89,3.66-4.55,6.48-7.96,8.44-3.41,1.95-7.31,2.92-11.69,2.92-3.48,0-6.51-.65-9.09-1.95-2.56-1.3-4.52-3.16-5.87-5.57-1.34-2.44-2-5.28-2-8.52,0-4.24.95-8.19,2.84-11.85,1.91-3.68,4.56-6.49,7.93-8.42,3.37-1.95,7.25-2.92,11.64-2.92h0ZM195.9,15.53c-2.92,0-5.41.68-7.47,2.03-2.06,1.35-3.64,3.39-4.76,6.12-1.12,2.72-1.68,5.57-1.68,8.52,0,3.32.81,5.82,2.44,7.5,1.62,1.66,3.89,2.49,6.79,2.49s5.39-.68,7.44-2.03c2.06-1.35,3.64-3.36,4.76-6.03,1.14-2.67,1.7-5.53,1.7-8.58s-.79-5.64-2.38-7.39c-1.57-1.75-3.85-2.62-6.85-2.62Z"/>
          <path id="path2340" class="st3" d="M238.19,47.92l-10.12-30.61c-.41,2.92-.76,5.08-1.03,6.47l-4.71,24.14h-7.09l7.41-38.13h9.47l10.2,30.88.32-2.22c.2-1.5.46-3.07.78-4.71l4.71-23.95h7.09l-7.41,38.13h-9.63Z"/>
          <path id="path2342" class="st3" d="M255.27,47.92l7.39-38.13h29.98l-1.19,6.17h-22l-1.87,9.58h20.35l-1.19,6.17h-20.35l-1.95,10.04h23.11l-1.22,6.17h-31.07Z"/>
        </g>
      </g>
    </g>
    <path id="rect1181" class="st4" d="M3.46,36.84c-1.92,0-3.46,1.54-3.46,3.46v8.22c0,1.92,1.54,3.46,3.46,3.46h64.42c1.92,0,3.46-1.54,3.46-3.46v-8.22c0-1.92-1.54-3.46-3.46-3.46H3.46ZM14,40.62c2.09,0,3.78,1.69,3.78,3.78,0,2.09-1.69,3.78-3.78,3.78-2.09,0-3.78-1.69-3.78-3.78h0c0-2.09,1.69-3.78,3.78-3.78h0ZM36.14,40.62c2.09,0,3.78,1.69,3.78,3.78h0c0,2.09-1.69,3.78-3.78,3.78h0c-2.09,0-3.78-1.69-3.78-3.78h0c0-2.09,1.69-3.78,3.78-3.78h0ZM57.34,40.62c2.09,0,3.78,1.69,3.78,3.78h0c0,2.09-1.69,3.78-3.78,3.78h0c-2.09,0-3.78-1.69-3.78-3.78h0c0-2.09,1.69-3.78,3.78-3.78h0Z"/>
    <g id="use1217">
      <path id="rect1235" class="st1" d="M3.46,18.42C1.54,18.42,0,19.96,0,21.88v8.22C0,32.01,1.54,33.55,3.46,33.55h64.42c1.92,0,3.46-1.54,3.46-3.46v-8.22c0-1.92-1.54-3.46-3.46-3.46H3.46ZM14,22.2c2.09,0,3.78,1.69,3.78,3.78,0,2.09-1.69,3.78-3.78,3.78-2.09,0-3.78-1.69-3.78-3.78h0c0-2.09,1.69-3.78,3.78-3.78h0ZM36.14,22.2c2.09,0,3.78,1.69,3.78,3.78h0c0,2.09-1.69,3.78-3.78,3.78h0c-2.09,0-3.78-1.69-3.78-3.78h0c0-2.09,1.69-3.78,3.78-3.78h0ZM57.34,22.2c2.09,0,3.78,1.69,3.78,3.78h0c0,2.09-1.69,3.78-3.78,3.78h0c-2.09,0-3.78-1.69-3.78-3.78h0c0-2.09,1.69-3.78,3.78-3.78h0Z"/>
    </g>
    <g id="use1219">
      <path id="rect1223" class="st6" d="M3.46,0C1.54,0,0,1.54,0,3.46v8.22C0,13.59,1.54,15.13,3.46,15.13h64.42c1.92,0,3.46-1.54,3.46-3.46V3.46c0-1.92-1.54-3.46-3.46-3.46H3.46ZM14,3.78c2.09,0,3.78,1.69,3.78,3.78,0,2.09-1.69,3.78-3.78,3.78-2.09,0-3.78-1.69-3.78-3.78h0c0-2.09,1.69-3.78,3.78-3.78h0ZM36.14,3.78c2.09,0,3.78,1.69,3.78,3.78h0c0,2.09-1.69,3.78-3.78,3.78h0c-2.09,0-3.78-1.69-3.78-3.78h0c0-2.09,1.69-3.78,3.78-3.78h0ZM57.34,3.78c2.09,0,3.78,1.69,3.78,3.78h0c0,2.09-1.69,3.78-3.78,3.78h0c-2.09,0-3.78-1.69-3.78-3.78h0c0-2.09,1.69-3.78,3.78-3.78h0Z"/>
    </g>
  </g>
</svg>