<?xml version="1.0" encoding="UTF-8" standalone="no"?>
<svg
   xmlns:dc="http://purl.org/dc/elements/1.1/"
   xmlns:cc="http://creativecommons.org/ns#"
   xmlns:rdf="http://www.w3.org/1999/02/22-rdf-syntax-ns#"
   xmlns:svg="http://www.w3.org/2000/svg"
   xmlns="http://www.w3.org/2000/svg"
   xmlns:sodipodi="http://sodipodi.sourceforge.net/DTD/sodipodi-0.dtd"
   xmlns:inkscape="http://www.inkscape.org/namespaces/inkscape"
   class="ol-control__icon"
   viewBox="0 0 612 612"
   style="width:20px;height:20px"
   version="1.1"
   id="svg4"
   sodipodi:docname="measure-erase.svg"
   inkscape:version="1.0.1 (3bc2e813f5, 2020-09-07)">
  <metadata
     id="metadata10">
    <rdf:RDF>
      <cc:Work
         rdf:about="">
        <dc:format>image/svg+xml</dc:format>
        <dc:type
           rdf:resource="http://purl.org/dc/dcmitype/StillImage" />
        <dc:title></dc:title>
      </cc:Work>
    </rdf:RDF>
  </metadata>
  <defs
     id="defs8" />
  <sodipodi:namedview
     pagecolor="#ffffff"
     bordercolor="#666666"
     borderopacity="1"
     objecttolerance="10"
     gridtolerance="10"
     guidetolerance="10"
     inkscape:pageopacity="0"
     inkscape:pageshadow="2"
     inkscape:window-width="1440"
     inkscape:window-height="837"
     id="namedview6"
     showgrid="false"
     inkscape:zoom="0.5130719"
     inkscape:cx="255.9845"
     inkscape:cy="424.98628"
     inkscape:window-x="-8"
     inkscape:window-y="-8"
     inkscape:window-maximized="1"
     inkscape:current-layer="g6"
     inkscape:document-rotation="0" />
  <g
     transform="matrix(0.52401991,0,0,-0.52401991,43.990044,590.1498)"
     id="g6"
     style="fill:#000000">
    <path
       d="M 543.22701,97.465618 36.400002,594.0344 c -17.6,17.5 -26.4,38.3 -26.4,62.4 0,24.1 8.8,44.7 26.3,61.7 L 278.8,961.5344 c 17,17 37.8,25.5 62.5,25.5 24.7,0 45.5,-8.5 62.5,-25.5 l 560.7,-561.5 c 17,-17 25.5,-37.8 25.5,-62.5 0,-24.7 -8.5,-45.2 -25.5,-61.7 L 793.57004,101.18503 Z m -41.3865,155.128272 249.1,249.9 L 347.9,905.6344 98.000002,656.4344 Z"
       id="path4"
       sodipodi:nodetypes="ccsccsccscccccccc"
       style="fill:#ffffff" />
  </g>
</svg>
