<?xml version="1.0" encoding="UTF-8" standalone="no"?>
<svg
   xmlns:dc="http://purl.org/dc/elements/1.1/"
   xmlns:cc="http://creativecommons.org/ns#"
   xmlns:rdf="http://www.w3.org/1999/02/22-rdf-syntax-ns#"
   xmlns:svg="http://www.w3.org/2000/svg"
   xmlns="http://www.w3.org/2000/svg"
   xmlns:sodipodi="http://sodipodi.sourceforge.net/DTD/sodipodi-0.dtd"
   xmlns:inkscape="http://www.inkscape.org/namespaces/inkscape"
   inkscape:version="1.0.1 (3bc2e813f5, 2020-09-07)"
   inkscape:export-ydpi="108.84501"
   inkscape:export-xdpi="108.84501"
   sodipodi:docname="pano-selected.svg"
   id="svg8"
   version="1.1"
   viewBox="0 0 38.208239 38.208238"
   height="28"
   width="28">
  <sodipodi:namedview
     inkscape:current-layer="layer2"
     inkscape:window-maximized="1"
     inkscape:window-y="-8"
     inkscape:window-x="-8"
     inkscape:cy="16.597685"
     inkscape:cx="17.091249"
     inkscape:zoom="8.0000004"
     fit-margin-bottom="0"
     fit-margin-right="0"
     fit-margin-left="0"
     fit-margin-top="0"
     scale-x="1.36458"
     showgrid="false"
     id="namedview11"
     inkscape:window-height="837"
     inkscape:window-width="1440"
     inkscape:pageshadow="2"
     inkscape:pageopacity="0"
     guidetolerance="10"
     gridtolerance="10"
     objecttolerance="10"
     borderopacity="1"
     bordercolor="#666666"
     pagecolor="#ffffff"
     inkscape:document-rotation="0"
     inkscape:pagecheckerboard="true"
     units="px" />
  <defs
     id="defs2" />
  <metadata
     id="metadata5">
    <rdf:RDF>
      <cc:Work
         rdf:about="">
        <dc:format>image/svg+xml</dc:format>
        <dc:type
           rdf:resource="http://purl.org/dc/dcmitype/StillImage" />
        <dc:title></dc:title>
      </cc:Work>
    </rdf:RDF>
  </metadata>
  <g
     transform="translate(-98.971485,-109.35065)"
     id="layer2">
    <g
       style="opacity:1"
       id="g959" />
    <g
       id="g859"
       transform="matrix(0.99016728,0,0,0.99016728,-1.8930933,-1.0744687)">
      <path
         id="path839"
         d="m 121.16003,118.25443 c -6.9373,0 -12.56108,5.62378 -12.56108,12.56108 0,6.9373 5.62378,12.56108 12.56108,12.56108 6.9373,0 12.56108,-5.62378 12.56108,-12.56108 0,-6.9373 -5.62378,-12.56108 -12.56108,-12.56108 z"
         style="opacity:0.996;fill:#ff8080;fill-opacity:1;fill-rule:evenodd;stroke:none;stroke-width:0.628056;stroke-linecap:butt;stroke-linejoin:miter;stroke-miterlimit:4;stroke-dasharray:none;stroke-opacity:1"
         sodipodi:nodetypes="sssss" />
      <path
         id="path850"
         d="m 121.16003,111.52168 c -10.6557,0 -19.29383,8.63813 -19.29383,19.29383 0,10.6557 8.63813,19.29383 19.29383,19.29383 10.6557,0 19.29383,-8.63813 19.29383,-19.29383 0,-10.6557 -8.63813,-19.29383 -19.29383,-19.29383 z"
         style="opacity:0.996;fill:#ff9e67;fill-opacity:1;fill-rule:evenodd;stroke:none;stroke-width:0.964694;stroke-linecap:butt;stroke-linejoin:miter;stroke-miterlimit:4;stroke-dasharray:none;stroke-opacity:1"
         sodipodi:nodetypes="sssss" />
      <path
         id="path4048"
         d="m 121.18193,116.36704 c -7.99177,0 -14.47037,6.46879 -14.47037,14.44847 0,7.97968 6.4786,14.44847 14.47037,14.44847 7.99178,0 14.47037,-6.46879 14.47037,-14.44847 0,-7.97968 -6.47859,-14.44847 -14.47037,-14.44847 z m 0,2.24547 c 6.39342,0 12.2215,5.81926 12.2215,12.203 0,6.38374 -5.82808,12.203 -12.2215,12.203 -6.39341,0 -12.2215,-5.81926 -12.2215,-12.203 0,-6.38374 5.82809,-12.203 12.2215,-12.203 z"
         style="opacity:0.996;fill:#ffffff;fill-opacity:1;fill-rule:evenodd;stroke:none;stroke-width:0.722973;stroke-linecap:butt;stroke-linejoin:miter;stroke-miterlimit:4;stroke-dasharray:none;stroke-opacity:1"
         sodipodi:nodetypes="ssssssssss" />
      <path
         id="path5512"
         d="m 111.05267,138.22036 c 5.78816,-2.16727 14.47036,-2.16727 20.25852,0"
         style="opacity:0.996;fill:none;fill-opacity:0.75;fill-rule:evenodd;stroke:#ffffff;stroke-width:2.16891;stroke-linecap:round;stroke-linejoin:miter;stroke-miterlimit:4;stroke-dasharray:none;stroke-opacity:1" />
      <path
         id="path5516"
         d="m 108.75334,130.81551 h 24.76501"
         style="opacity:0.996;fill:none;fill-opacity:0.75;fill-rule:evenodd;stroke:#ffffff;stroke-width:2.24096;stroke-linecap:butt;stroke-linejoin:miter;stroke-miterlimit:4;stroke-dasharray:none;stroke-opacity:1" />
      <path
         id="path5520"
         d="m 118.28936,118.35148 c -3.6157,7.80155 -3.6157,17.50794 0,24.9744"
         style="opacity:0.996;fill:none;fill-opacity:0.75;fill-rule:evenodd;stroke:#ffffff;stroke-width:2.20437;stroke-linecap:butt;stroke-linejoin:miter;stroke-miterlimit:4;stroke-dasharray:none;stroke-opacity:1" />
      <path
         style="opacity:0.996;fill:none;fill-opacity:0.75;fill-rule:evenodd;stroke:#ffffff;stroke-width:2.16891;stroke-linecap:round;stroke-linejoin:miter;stroke-miterlimit:4;stroke-dasharray:none;stroke-opacity:1"
         d="m 111.05267,123.41067 c 5.78816,2.16728 14.47036,2.16728 20.25852,0"
         id="path6250" />
      <path
         style="opacity:0.996;fill:none;fill-opacity:0.75;fill-rule:evenodd;stroke:#ffffff;stroke-width:2.20437;stroke-linecap:butt;stroke-linejoin:miter;stroke-miterlimit:4;stroke-dasharray:none;stroke-opacity:1"
         d="m 124.45089,118.35148 c 3.6157,7.80155 3.6157,17.50794 0,24.9744"
         id="path9156" />
    </g>
  </g>
</svg>
