<?xml version="1.0" encoding="UTF-8" standalone="no"?>
<svg
   class="ol-control__icon"
   viewBox="0 0 326.534 326.535"
   style="width:18px;height:18px"
   version="1.1"
   id="svg4"
   sodipodi:docname="measure-units.svg"
   inkscape:version="1.2.1 (9c6d41e, 2022-07-14)"
   xml:space="preserve"
   xmlns:inkscape="http://www.inkscape.org/namespaces/inkscape"
   xmlns:sodipodi="http://sodipodi.sourceforge.net/DTD/sodipodi-0.dtd"
   xmlns="http://www.w3.org/2000/svg"
   xmlns:svg="http://www.w3.org/2000/svg"
   xmlns:rdf="http://www.w3.org/1999/02/22-rdf-syntax-ns#"
   xmlns:cc="http://creativecommons.org/ns#"
   xmlns:dc="http://purl.org/dc/elements/1.1/"><metadata
     id="metadata10"><rdf:RDF><cc:Work
         rdf:about=""><dc:format>image/svg+xml</dc:format><dc:type
           rdf:resource="http://purl.org/dc/dcmitype/StillImage" /></cc:Work></rdf:RDF></metadata><defs
     id="defs8" /><sodipodi:namedview
     pagecolor="#ffffff"
     bordercolor="#666666"
     borderopacity="1"
     objecttolerance="10"
     gridtolerance="10"
     guidetolerance="10"
     inkscape:pageopacity="0"
     inkscape:pageshadow="2"
     inkscape:window-width="1440"
     inkscape:window-height="847"
     id="namedview6"
     showgrid="false"
     inkscape:zoom="0.67996241"
     inkscape:cx="-64.709459"
     inkscape:cy="124.27158"
     inkscape:window-x="0"
     inkscape:window-y="25"
     inkscape:window-maximized="1"
     inkscape:current-layer="svg4"
     inkscape:showpageshadow="2"
     inkscape:pagecheckerboard="0"
     inkscape:deskcolor="#d1d1d1" /><g
     id="g507"
     transform="matrix(0.63983807,0,0,0.63983807,-1.4236115,-0.50167239)"
     style="fill:#ffffff"><path
       d="m 348,327.195 v -35.741 l -32.436,-11.912 c -2.825,-10.911 -6.615,-21.215 -12.216,-30.687 l 0.325,-0.042 15.438,-32.153 -25.2,-25.269 -32.118,15.299 -0.031,0.045 c -9.472,-5.601 -19.758,-9.156 -30.671,-11.978 L 219.186,162 h -35.739 l -11.913,32.759 c -10.913,2.821 -21.213,6.774 -30.685,12.379 l -0.048,-0.248 -32.149,-15.399 -25.269,25.219 15.299,32.124 0.05,0.039 c -5.605,9.471 -11.159,19.764 -13.98,30.675 L 50,291.454 v 35.741 l 34.753,11.913 c 2.821,10.915 7.774,21.211 13.38,30.685 l 0.249,0.045 -15.147,32.147 25.343,25.274 32.188,-15.298 0.065,-0.046 c 9.474,5.597 19.782,10.826 30.695,13.652 L 183.447,460 h 35.739 l 11.915,-34.432 c 10.913,-2.826 21.209,-7.614 30.681,-13.215 l 0.05,-0.175 32.151,15.192 25.267,-25.326 -15.299,-32.182 -0.046,-0.061 c 5.601,-9.473 8.835,-19.776 11.66,-30.688 z m -146.682,41.696 c -32.897,0 -59.566,-26.662 -59.566,-59.565 0,-32.896 26.669,-59.568 59.566,-59.568 32.901,0 59.566,26.672 59.566,59.568 0,32.903 -26.665,59.565 -59.566,59.565 z"
       id="path496"
       style="fill:#ffffff" /><path
       d="m 462.238,111.24 -7.815,-18.866 -20.23,1.012 c -3.873,-5.146 -8.385,-9.644 -13.417,-13.42 l 0.038,-0.043 1.06,-20.318 -18.859,-7.822 -13.63,15.107 -0.008,0.031 c -6.229,-0.883 -12.619,-0.933 -18.988,-0.025 l -13.629,-15.122 -18.867,7.815 1.055,20.32 c -5.152,3.873 -9.627,8.422 -13.403,13.46 l -0.038,-0.021 -20.317,-1.045 -7.799,18.853 15.103,13.616 0.038,0.021 c -0.731,5.835 -1.035,12.658 -0.133,19.038 l -15.208,13.662 7.812,18.87 20.414,-1.086 c 3.868,5.144 8.472,9.613 13.495,13.385 l 0.013,0.025 -1.03,20.312 20.668,7.815 L 374,201.703 v -0.033 c 4,0.731 10.818,0.935 17.193,0.04 l 12.729,15.114 18.42,-7.813 -1.286,-20.324 c 5.144,-3.875 9.521,-8.424 13.297,-13.456 l -0.023,0.011 20.287,1.047 7.802,-18.864 -15.121,-13.624 -0.033,-0.019 c 0.877,-6.222 0.852,-12.58 -0.05,-18.953 z m -69.326,54.501 c -17.359,7.19 -37.27,-1.053 -44.462,-18.421 -7.196,-17.364 1.047,-37.272 18.415,-44.465 17.371,-7.192 37.274,1.053 44.471,18.417 7.187,17.371 -1.06,37.275 -18.424,44.469 z"
       id="path498"
       style="fill:#ffffff" /></g></svg>
